<?xml version="1.0" encoding="UTF-8"?>
<svg id="Layer_1" data-name="Layer 1" xmlns="http://www.w3.org/2000/svg" viewBox="0 0 435.47 95.08">
  <defs>
    <style>
      .cls-1 {
        fill: #fff;
      }
    </style>
  </defs>
  <path class="cls-1" d="M47.14,56.11c15.75,0,30.59,6.17,41.78,17.37l5.32-5.32c-5.65-5.66-8.77-13.13-8.77-21.03s3.1-15.44,8.73-21.07l-5.32-5.32c-7.05,7.05-10.93,16.42-10.93,26.39,0,3.32.44,6.58,1.28,9.71-2.6-1.44-5.29-2.69-8.05-3.76-.26-1.96-.4-3.95-.4-5.95,0-11.88,4.63-23.06,13.03-31.45l-5.32-5.32c-9.82,9.82-15.24,22.88-15.24,36.78,0,1.16.05,2.31.13,3.47-2.39-.6-4.82-1.07-7.29-1.4v-2.14c.02-15.73,6.18-30.54,17.37-41.73l-5.32-5.32c-5.65,5.66-13.12,8.77-21.03,8.77S31.68,5.67,26.05.04l-5.32,5.32c7.05,7.05,16.42,10.93,26.39,10.93,3.32,0,6.58-.44,9.71-1.28-1.44,2.6-2.69,5.29-3.76,8.05-1.96.26-3.96.39-5.95.39-11.88,0-23.06-4.62-31.45-13.03l-5.32,5.32c9.82,9.82,22.88,15.24,36.78,15.24,1.16,0,2.31-.05,3.47-.13-.6,2.39-1.07,4.82-1.4,7.29h-2.21c-15.7-.04-30.49-6.2-41.66-17.37L0,26.09c5.65,5.65,8.77,13.12,8.77,21.03S5.67,62.57.04,68.2l5.32,5.32c7.05-7.05,10.93-16.42,10.93-26.39,0-3.32-.44-6.58-1.28-9.71,2.6,1.44,5.29,2.69,8.05,3.76.26,1.96.39,3.95.39,5.95,0,11.88-4.62,23.06-13.03,31.45l5.32,5.32c9.82-9.82,15.24-22.88,15.24-36.78,0-1.16-.05-2.31-.13-3.46,2.39.6,4.82,1.07,7.29,1.4v2.06h0c0,15.75-6.16,30.59-17.35,41.79,0,0,0,0-.01.02l5.32,5.32c5.65-5.65,13.12-8.77,21.03-8.77s15.44,3.1,21.07,8.73l5.32-5.32c-7.05-7.05-16.42-10.93-26.39-10.93-3.32,0-6.58.44-9.71,1.28,1.44-2.6,2.69-5.29,3.76-8.05,1.96-.26,3.96-.39,5.95-.39,11.88,0,23.06,4.62,31.45,13.03l5.32-5.32c-9.82-9.83-22.88-15.24-36.78-15.24-1.16,0-2.31.05-3.47.13.6-2.39,1.07-4.83,1.4-7.29h2.08Z"/>
  <rect x="198.39" y="66.05" width="5.26" height="19.43"/>
  <path d="M200.9,55.87c-1.83,0-3.32,1.49-3.32,3.32,0,1.94,1.49,3.32,3.32,3.32,1.95,0,3.43-1.38,3.43-3.32,0-1.83-1.48-3.32-3.43-3.32"/>
  <path d="M154.72,65.7c-1.95,0-3.89.69-5.26,1.71v-10.4h-5.26v28.46h5.26v-12.57c.69-1.14,2.51-2.51,4.69-2.51,1.26,0,2.28.46,2.97,1.14.69.8,1.14,1.71,1.14,3.66v10.29h5.15v-9.94c0-3.2-.69-5.26-1.95-6.86-1.6-1.83-4.11-2.97-6.74-2.97"/>
  <rect x="188.21" y="57.02" width="5.15" height="28.46"/>
  <path d="M208.35,43.87c0,1.91,1.46,3.25,3.36,3.25,1.79,0,3.36-1.34,3.36-3.25,0-1.79-1.57-3.25-3.36-3.25-1.9,0-3.36,1.46-3.36,3.25"/>
  <polygon points="140.89 57.47 133.91 57.47 123.28 68.67 123.28 57.47 117.8 57.47 117.8 85.48 123.28 85.48 123.28 71.65 135.4 85.48 142.37 85.48 128.66 70.16 140.89 57.47"/>
  <path d="M286.89,13.3c1.79,0,3.36-1.34,3.36-3.25,0-1.79-1.57-3.24-3.36-3.24-1.9,0-3.36,1.46-3.36,3.24,0,1.91,1.46,3.25,3.36,3.25"/>
  <path d="M251.16,15.19c1.83,0,3.43-1.37,3.43-3.32,0-1.82-1.6-3.31-3.43-3.31-1.94,0-3.43,1.49-3.43,3.31,0,1.95,1.49,3.32,3.43,3.32"/>
  <path d="M295.29,13.3c1.79,0,3.36-1.34,3.36-3.25,0-1.79-1.57-3.24-3.36-3.24s-3.25,1.46-3.25,3.24c0,1.91,1.46,3.25,3.25,3.25"/>
  <path d="M193.45,12.79c1.94,0,3.54-1.37,3.54-3.32,0-1.82-1.6-3.31-3.54-3.31-1.83,0-3.32,1.49-3.32,3.31,0,1.95,1.49,3.32,3.32,3.32"/>
  <path d="M128.34,37.02h137.55v-8.11c0-7.08-3.2-11.31-11.31-11.31h-11.77v5.26h11.77c4.11,0,6.06,2.4,6.06,5.94v2.97h-27.88V9.02h-5.26v22.74h-8.93l-.09-14.17h-5.26l.09,14.17h-10.64c1.49-1.81,2.32-4.1,2.32-6.63,0-5.94-5.14-10.62-11.54-10.62s-11.43,4.68-11.43,10.62c0,2.53.83,4.82,2.31,6.63h-47.77V15.42h-8.23c-6.4,0-12.11,3.89-12.11,10.74s5.71,10.86,12.11,10.86M187.17,25.71c0-3.66,2.86-6.28,6.28-6.28s6.4,2.63,6.4,6.28c0,3.43-2.86,6.05-6.4,6.05s-6.28-2.63-6.28-6.05M128.34,20.68h2.97v11.08h-2.97c-3.54,0-6.85-1.71-6.85-5.6s3.31-5.48,6.85-5.48"/>
  <path d="M217.25,62.39c.57-.8,1.71-1.03,2.86-1.03.46,0,1.14,0,1.6.11l.8-4.46c-1.14-.23-1.94-.34-3.08-.34-2.51,0-4.69,1.03-6.06,2.28-1.26,1.26-2.06,3.2-2.06,6.29v.8h-4.92v4.34h4.92v15.09h5.26v-15.09h5.94v-4.34h-5.94v-.57c0-1.83.34-2.51.69-3.08"/>
  <path d="M124.65,13.3c1.79,0,3.36-1.34,3.36-3.25,0-1.79-1.57-3.24-3.36-3.24-1.9,0-3.36,1.46-3.36,3.24,0,1.91,1.46,3.25,3.36,3.25"/>
  <path d="M133.05,13.3c1.79,0,3.36-1.34,3.36-3.25,0-1.79-1.57-3.24-3.36-3.24s-3.25,1.46-3.25,3.24c0,1.91,1.46,3.25,3.25,3.25"/>
  <path d="M174.95,65.7c-3.32,0-6.06,1.14-7.32,1.95l1.6,4c1.26-.69,3.43-1.6,5.15-1.6,2.06,0,4,.91,4,3.43-1.14-.57-2.51-.8-3.77-.8-4.23,0-8,2.51-8,6.63,0,3.66,3.08,6.52,6.97,6.52,2.4,0,4.34-1.03,5.03-1.94v1.6h5.03v-10.86c0-2.97-.69-4.46-1.83-5.94-1.6-2.06-4.11-2.97-6.85-2.97M178.38,79.42c-1.14,1.37-2.51,1.95-4,1.95-1.37,0-2.51-.8-2.51-2.06,0-1.94,2.4-2.51,3.89-2.51.92,0,1.83.12,2.63.69v1.95Z"/>
  <path d="M405.75,60.67h-5.26v5.37h-5.26v4.34h5.26v6.86c0,2.74.57,4.46,1.49,5.71,1.37,1.83,3.65,2.86,6.74,2.86,1.03,0,2.63-.23,3.2-.34l-.8-4.46c-.34.11-1.26.23-2.06.23-1.26,0-2.06-.34-2.63-.92-.46-.57-.69-1.37-.69-2.51v-7.43h6.4v-4.34h-6.4v-5.37Z"/>
  <path d="M389.74,55.87c-1.83,0-3.32,1.49-3.32,3.32,0,1.94,1.49,3.32,3.32,3.32,1.95,0,3.43-1.38,3.43-3.32,0-1.83-1.49-3.32-3.43-3.32"/>
  <rect x="387.23" y="66.05" width="5.26" height="19.43"/>
  <path d="M374.08,71.65c0-1.03,1.14-1.6,2.63-1.6,1.37,0,2.63.57,3.65,1.38l2.52-3.77c-1.38-1.03-4.12-1.95-6.63-1.95-3.77,0-7.32,2.29-7.32,5.95,0,6.29,9.26,5.15,9.26,8.12,0,.91-1.03,1.6-2.51,1.6-1.83,0-3.89-.69-5.26-1.83l-2.51,3.66c2.29,1.71,5.15,2.63,7.78,2.63,4.11,0,7.77-2.29,7.77-6.06,0-6.63-9.37-5.72-9.37-8.12"/>
  <path d="M427.81,42.73c0-1.94-1.6-3.43-3.43-3.43-1.95,0-3.43,1.49-3.43,3.43,0,1.83,1.48,3.2,3.43,3.2,1.83,0,3.43-1.37,3.43-3.2"/>
  <polygon points="424.72 77.59 419.01 66.04 413.29 66.04 421.98 83.42 416.72 95.08 422.09 95.08 435.47 66.04 429.87 66.04 424.72 77.59"/>
  <path d="M424.15,17.59h-11.88v5.26h11.88c4.11,0,6.06,2.4,6.06,5.94v2.97h-28V9.02h-5.26v27.99h38.51v-8.11c0-7.09-3.2-11.31-11.31-11.31"/>
  <path d="M359.91,67.99v-1.95h-5.03v19.44h5.26v-12.23c.57-1.14,2.29-2.86,4.58-2.86.8,0,1.6.12,1.94.23l.69-4.8c-.57,0-1.14-.12-1.83-.12-2.4,0-4.46.8-5.6,2.29"/>
  <polygon points="321.96 77.82 316.81 66.05 311.32 66.05 320.24 85.48 323.9 85.48 332.82 66.05 327.33 66.05 321.96 77.82"/>
  <path d="M270.52,74.05c0,2.63-.8,4.12-1.95,5.15-1.14,1.26-2.86,1.83-4.69,1.83-1.94,0-3.65-.57-4.8-1.83-1.14-1.03-1.83-2.51-1.83-5.15v-16.57h-5.37v16.23c0,4.23,1.26,7.2,3.54,9.26,2.17,1.95,5.26,2.86,8.46,2.86s6.17-.91,8.35-2.86c2.29-2.06,3.54-5.03,3.54-9.26v-16.23h-5.26v16.57Z"/>
  <path d="M380.73,40.1c6.4,0,11.54-5.14,11.54-11.43s-5.14-11.54-11.54-11.54-11.54,5.14-11.54,11.54c0,1.07.16,2.1.44,3.08h-12.38l4.63-11.88c-3.31-3.65-7.88-5.37-12.45-5.37s-9.03,1.71-12.45,5.37l4.63,11.88h-42.79V15.42h-8.23c-6.4,0-12.11,3.89-12.11,10.74s5.71,10.86,12.11,10.86h82.29c2.06,1.91,4.82,3.08,7.87,3.08M290.58,31.76c-3.54,0-6.85-1.71-6.85-5.6s3.32-5.48,6.85-5.48h2.97v11.08h-2.97ZM380.73,22.05c3.43,0,6.28,2.86,6.28,6.63s-2.85,6.51-6.28,6.51-6.28-2.85-6.28-6.51,2.86-6.63,6.28-6.63M342.45,21.7c1.26-1.14,4.34-2.17,6.97-2.17s5.83,1.03,6.97,2.17l-4.02,10.05h-5.89l-4.02-10.05Z"/>
  <path d="M290.75,65.7c-2.17,0-4,.8-5.49,1.95v-1.6h-4.91v19.43h5.14v-12.57c.69-1.14,2.52-2.51,4.8-2.51,1.14,0,2.17.46,2.86,1.14.69.8,1.14,1.71,1.14,3.66v10.29h5.15v-9.94c0-3.2-.69-5.26-1.95-6.86-1.6-1.83-4.11-2.97-6.74-2.97"/>
  <path d="M342.42,65.7c-5.83,0-9.49,4.69-9.49,10.06,0,6.06,4.46,10.06,10.17,10.06,2.97,0,6.06-1.26,7.89-3.43l-2.97-2.97c-.92,1.03-2.63,2.17-4.8,2.17-2.86,0-5.03-1.83-5.26-4.58h13.37c.11-.34.11-.91.11-1.48,0-5.37-3.77-9.83-9.03-9.83M338.19,73.25c.23-1.71,2.06-3.43,4.23-3.43,2.06,0,3.66,1.72,3.77,3.43h-8Z"/>
  <path d="M231.77,65.7c-3.2,0-6.06,1.14-7.32,1.95l1.71,4c1.14-.69,3.2-1.6,5.15-1.6,2.06,0,3.89.91,3.89,3.43-1.03-.57-2.4-.8-3.66-.8-4.34,0-8,2.51-8,6.63,0,3.66,2.97,6.52,6.97,6.52,2.4,0,4.34-1.03,4.91-1.94v1.6h5.03v-10.86c0-2.97-.69-4.46-1.71-5.94-1.6-2.06-4.23-2.97-6.97-2.97M235.19,79.42c-1.03,1.37-2.4,1.95-3.89,1.95-1.37,0-2.63-.8-2.63-2.06,0-1.94,2.4-2.51,4-2.51.91,0,1.83.12,2.51.69v1.95Z"/>
  <path d="M220.1,40.62c-1.79,0-3.25,1.46-3.25,3.25,0,1.9,1.46,3.24,3.25,3.24s3.36-1.34,3.36-3.24c0-1.79-1.57-3.25-3.36-3.25"/>
  <path d="M306.41,55.87c-1.95,0-3.43,1.49-3.43,3.32,0,1.94,1.49,3.32,3.43,3.32,1.83,0,3.32-1.38,3.32-3.32,0-1.83-1.49-3.32-3.32-3.32"/>
  <rect x="303.78" y="66.05" width="5.15" height="19.43"/>
</svg>