<?xml version="1.0" encoding="UTF-8"?>
<svg id="Layer_1" data-name="Layer 1" xmlns="http://www.w3.org/2000/svg" viewBox="0 0 94.24 94.23">
  <defs>
    <style>
      .cls-1 {
        fill: #fff;
      }
    </style>
  </defs>
  <path class="cls-1" d="M47.14,56.09c15.75,0,30.59,6.17,41.78,17.37l5.32-5.32c-5.65-5.66-8.77-13.13-8.77-21.03s3.1-15.44,8.73-21.07l-5.32-5.32c-7.05,7.05-10.93,16.42-10.93,26.39,0,3.32.44,6.58,1.28,9.71-2.6-1.44-5.29-2.69-8.05-3.76-.26-1.96-.4-3.95-.4-5.95,0-11.88,4.63-23.06,13.03-31.45l-5.32-5.32c-9.82,9.82-15.24,22.88-15.24,36.78,0,1.16.05,2.31.13,3.47-2.39-.6-4.82-1.07-7.29-1.4v-2.14c.02-15.73,6.18-30.54,17.37-41.73l-5.32-5.32c-5.65,5.66-13.12,8.77-21.03,8.77S31.68,5.65,26.05.02l-5.32,5.32c7.05,7.05,16.42,10.93,26.39,10.93,3.32,0,6.58-.44,9.71-1.28-1.44,2.6-2.69,5.29-3.76,8.05-1.96.26-3.96.39-5.95.39-11.88,0-23.06-4.62-31.45-13.03l-5.32,5.32c9.82,9.82,22.88,15.24,36.78,15.24,1.16,0,2.31-.05,3.47-.13-.6,2.39-1.07,4.82-1.4,7.29h-2.21c-15.7-.04-30.49-6.2-41.66-17.37L0,26.07c5.65,5.65,8.77,13.12,8.77,21.03S5.67,62.55.04,68.18l5.32,5.32c7.05-7.05,10.93-16.42,10.93-26.39,0-3.32-.44-6.58-1.28-9.71,2.6,1.44,5.29,2.69,8.05,3.76.26,1.96.39,3.95.39,5.95,0,11.88-4.62,23.06-13.03,31.45l5.32,5.32c9.82-9.82,15.24-22.88,15.24-36.78,0-1.16-.05-2.31-.13-3.46,2.39.6,4.82,1.07,7.29,1.4v2.06h0c0,15.75-6.16,30.59-17.35,41.79v.02s5.31,5.32,5.31,5.32c5.65-5.65,13.12-8.77,21.03-8.77s15.44,3.1,21.07,8.73l5.32-5.32c-7.05-7.05-16.42-10.93-26.39-10.93-3.32,0-6.58.44-9.71,1.28,1.44-2.6,2.69-5.29,3.76-8.05,1.96-.26,3.96-.39,5.95-.39,11.88,0,23.06,4.62,31.45,13.03l5.32-5.32c-9.82-9.83-22.88-15.24-36.78-15.24-1.16,0-2.31.05-3.47.13.6-2.39,1.07-4.83,1.4-7.29h2.09Z"/>
</svg>