<?xml version="1.0" encoding="UTF-8"?>
<svg xmlns="http://www.w3.org/2000/svg" version="1.1" viewBox="0 0 511.02 132.9">
  <!-- Generator: Adobe Illustrator 30.1.0, SVG Export Plug-In . SVG Version: 2.1.1 Build 136)  -->
  <defs>
    <style>
      .st0, .st1, .st2 {
        fill: none;
      }

      .st3 {
        fill: #fff;
      }

      .st1 {
        stroke-width: .38px;
      }

      .st1, .st2 {
        stroke: #fff;
        stroke-miterlimit: 10;
      }

      .st2 {
        stroke-width: .18px;
      }

      .st4 {
        display: none;
      }
    </style>
  </defs>
  <g id="Grid" class="st4">
    <g>
      <path class="st1" d="M202.43,189.31"/>
      <path class="st1" d="M-1717.57,189.31"/>
      <path class="st1" d="M202.43,170.17"/>
      <path class="st1" d="M-1717.57,170.17"/>
      <path class="st1" d="M202.43,151.03"/>
      <path class="st1" d="M-1717.57,151.03"/>
      <path class="st1" d="M202.43,131.89"/>
      <path class="st1" d="M-1717.57,131.89"/>
      <path class="st1" d="M202.43,112.75"/>
      <path class="st1" d="M-1717.57,112.75"/>
      <path class="st1" d="M202.43,93.61"/>
      <path class="st1" d="M-1717.57,93.61"/>
      <path class="st1" d="M202.43,74.46"/>
      <path class="st1" d="M-1717.57,74.46"/>
      <path class="st1" d="M202.43,55.32"/>
      <path class="st1" d="M-1717.57,55.32"/>
      <path class="st1" d="M202.43,36.18"/>
      <path class="st1" d="M-1717.57,36.18"/>
      <path class="st1" d="M202.43,17.04"/>
      <path class="st1" d="M-1717.57,17.04"/>
      <path class="st1" d="M202.43-2.1"/>
      <path class="st1" d="M-1717.57-2.1"/>
      <path class="st1" d="M202.43-21.24"/>
      <path class="st1" d="M-1717.57-21.24"/>
      <path class="st1" d="M202.43-40.38"/>
      <path class="st1" d="M-1717.57-40.38"/>
    </g>
    <g>
      <line class="st2" y1="83.17" x2="511.02" y2="83.17"/>
      <line class="st2" y1="74.85" x2="511.02" y2="74.85"/>
      <line class="st2" y1="66.52" x2="511.02" y2="66.52"/>
      <line class="st2" y1="58.2" x2="511.02" y2="58.2"/>
      <line class="st2" y1="49.88" x2="511.02" y2="49.88"/>
      <line class="st2" y1="41.56" x2="511.02" y2="41.56"/>
      <line class="st2" y1="33.24" x2="511.02" y2="33.24"/>
      <line class="st2" y1="24.92" x2="511.02" y2="24.92"/>
      <line class="st2" y1="16.6" x2="511.02" y2="16.6"/>
      <line class="st2" y1="116.45" x2="511.02" y2="116.45"/>
      <line class="st2" y1="108.13" x2="511.02" y2="108.13"/>
      <line class="st2" y1="99.81" x2="511.02" y2="99.81"/>
      <line class="st2" y1="91.49" x2="511.02" y2="91.49"/>
    </g>
  </g>
  <g id="Artwork">
    <rect class="st0" x="0" width="511.02" height="132.9"/>
    <g>
      <path class="st3" d="M96.93,81.16c-2.77-2.77-7.09-3.02-10.14-.78l-4.52-4.52c1.05-1.4,1.7-3.12,1.7-5.01,0-4.62-3.74-8.36-8.37-8.36s-8.37,3.74-8.37,8.36,3.75,8.37,8.37,8.37c1.89,0,3.61-.65,5.01-1.7l4.52,4.52c-1.97,2.69-2.01,6.34-.09,9.08l-4.51,4.29c-1.35-.98-3.04-1.59-4.92-1.59-4.3,0-7.79,3.09-7.79,6.89s3.49,6.9,7.79,6.9,7.79-3.09,7.79-6.9c0-1.34-.45-2.58-1.2-3.65l4.48-4.26c3.07,2.39,7.49,2.22,10.29-.59,3.04-3.04,3.03-8-.04-11.06Z"/>
      <path class="st3" d="M66.32,50.77l4.79-4.3c1.27.8,2.82,1.28,4.5,1.28s3.23-.48,4.5-1.28l4.81,4.3c-1.91,2.97-1.54,7.01,1.11,9.66,2.64,2.64,6.66,3.02,9.62,1.13l4.22,4.75c-.81,1.28-1.3,2.84-1.3,4.53,0,4.3,3.09,7.79,6.9,7.79s6.89-3.49,6.89-7.79-3.09-7.79-6.89-7.79c-1.51,0-2.9.56-4.03,1.49l-4.05-4.56c2.48-3.01,2.3-7.48-.56-10.35-2.85-2.85-7.31-3.04-10.32-.59l-4.62-4.14c.94-1.14,1.51-2.53,1.51-4.05,0-3.81-3.49-6.9-7.79-6.9s-7.79,3.09-7.79,6.9c0,1.52.57,2.91,1.51,4.05l-4.61,4.14c-2.75-2.27-6.62-2.43-9.47-.44l-2.98-3.1c1.7-2.22,2.02-5.04.92-7.23l3.94-3.34c2.38,1.85,6.05,1.65,8.7-.65,2.97-2.58,3.53-6.81,1.25-9.43-1.16-1.33-2.82-2-4.56-2s-3.48.64-4.95,1.91c-2.6,2.26-3.35,5.78-1.96,8.39l-3.89,3.29c-2.53-2.06-6.49-1.66-9.09,1.02-2.74,2.83-2.94,7.08-.44,9.51,2.2,2.13,5.74,2.14,8.43.19l2.96,3.08c-2.34,3.06-2.12,7.47.72,10.3,3.08,3.08,8.04,3.11,11.09.07,2.66-2.66,2.97-6.79.94-9.85Z"/>
      <path class="st3" d="M45.61,63.06c-3.81,0-6.9,3.49-6.9,7.79,0,1.75.53,3.36,1.4,4.66l-3.16,3.72c-1.14-.86-2.51-1.35-3.97-1.24-1.1.08-2.09.51-2.95,1.13l-3.9-4.65c.51-1.05.81-2.28.81-3.61s-.32-2.62-.84-3.69l3.74-4.57c.84.6,1.81,1,2.88,1.08,3.47.26,6.52-2.71,6.82-6.64.3-3.92-2.28-7.31-5.76-7.57-1.06-.08-2.06.16-2.97.62l-2.2-3.76c.19-.24.39-.48.56-.75,1.81-2.8,1.76-5.86-.12-6.82-.39-.2-.83-.3-1.29-.3-1.77,0-3.94,1.39-5.37,3.61-1.81,2.8-1.76,5.86.11,6.82,1.2.62,2.86.23,4.37-.87l2.05,3.5c-1.08,1.18-1.83,2.77-1.96,4.59-.13,1.8.36,3.47,1.24,4.79l-3.54,4.33c-.88-.79-1.94-1.27-3.09-1.27-2.97,0-5.38,3.09-5.38,6.9s2.41,6.9,5.38,6.9c1.18,0,2.26-.5,3.15-1.33l3.7,4.41c-.85,1.31-1.32,2.96-1.19,4.73.3,3.92,3.35,6.89,6.82,6.63,3.47-.26,6.05-3.65,5.76-7.58-.11-1.37-.56-2.62-1.24-3.66l3.14-3.69c1.11.86,2.46,1.38,3.91,1.38,3.81,0,6.9-3.49,6.9-7.79s-3.09-7.79-6.9-7.79Z"/>
      <path class="st3" d="M129.83,63.95c-1.18,0-2.25.54-3.12,1.42l-3.88-4.55c.83-1.3,1.29-2.93,1.16-4.68-.13-1.7-.79-3.19-1.76-4.34l1.84-2.83c1.59,1.3,3.39,1.75,4.66.95,1.82-1.15,1.83-4.42.01-7.3-1.38-2.2-3.42-3.54-5.13-3.54-.53,0-1.02.13-1.45.4-1.82,1.15-1.83,4.41-.02,7.29.09.14.19.26.29.4l-2.01,3.09c-.98-.55-2.09-.85-3.25-.77-3.47.26-6.05,3.65-5.76,7.58.3,3.92,3.35,6.89,6.82,6.63,1.12-.09,2.12-.52,2.99-1.16l4.13,4.85c-.44,1.02-.72,2.18-.72,3.44,0,3.81,2.33,6.9,5.19,6.9s5.19-3.09,5.19-6.9-2.33-6.9-5.19-6.9Z"/>
      <path class="st3" d="M39.92,33.45c1.76-1.61,2.67-3.64,2.57-5.29l4.44-3.2c1.23.46,2.97.34,4.75-.47,2.95-1.36,4.88-4.08,4.3-6.09-.36-1.26-1.62-1.94-3.23-1.94-.97,0-2.06.24-3.17.75-2.94,1.35-4.86,4.04-4.31,6.05l-3.84,2.77c-1.59-1.23-4.51-.64-6.83,1.49-2.51,2.3-3.35,5.49-1.88,7.12,1.47,1.64,4.69,1.1,7.2-1.19Z"/>
      <path class="st3" d="M127.66,92.63c-1.14-.53-2.65-.16-4.04.83l-1.56-3c1.22-1.2,2.04-2.91,2.19-4.85.29-3.92-2.28-7.32-5.75-7.58-.14,0-.28-.02-.42-.02-3.3,0-6.12,2.89-6.4,6.65-.12,1.61.26,3.11.97,4.36l-4.59,4.83c-2.53-1.54-6.09-.99-8.49,1.49-2.74,2.82-2.94,7.08-.44,9.5,2.06,2,5.31,2.1,7.92.5l3.4,4.28c-1.93,2.2-2.64,4.75-1.55,6.02.41.48,1.03.71,1.76.71h.05c1.42-.01,3.25-.86,4.87-2.38,2.47-2.33,3.49-5.36,2.27-6.77-1.06-1.22-3.44-.82-5.67.83l-3.33-4.2c2.22-2.5,2.55-5.96.91-8.36l4.39-4.62c.92.78,2.04,1.29,3.29,1.38.94.07,1.84-.11,2.67-.46l1.75,3.36c-.26.32-.5.67-.73,1.04-1.71,2.85-1.58,5.87.32,6.76,1.89.89,4.82-.7,6.54-3.55,1.72-2.85,1.58-5.88-.31-6.77Z"/>
      <g>
        <rect class="st3" x="193.9" y="34.52" width="2.33" height="2.36"/>
        <path class="st3" d="M196.19,33.08v-8.42c0-.58-.05-1.1-.16-1.51-.11-.4-.29-.78-.54-1.12l-2.31.96c.31.56.47,1.22.47,1.98v5.77h-2.47s-.7,0-.7,0h-28.57v-1.96c0-2.21-.5-3.89-1.51-5.03-1-1.14-2.48-1.72-4.42-1.72-1.18,0-2.27.17-3.27.51l.61,2.24c.89-.3,1.7-.44,2.43-.44,1.23,0,2.14.38,2.72,1.14.58.76.88,1.95.88,3.55v1.7h-7.87v2.33h44.73Z"/>
        <rect class="st3" x="190.3" y="34.52" width="2.36" height="2.36"/>
        <rect class="st3" x="199.61" y="16.41" width="2.57" height="16.67"/>
        <rect class="st3" x="207.09" y="17.88" width="2.38" height="2.4"/>
        <path class="st3" d="M207.05,34.34c0,1.17-.53,1.75-1.59,1.75-.31,0-.79-.06-1.42-.19l-.4,2.01c.82.23,1.59.35,2.29.35,1.25,0,2.17-.33,2.77-.98.6-.65.9-1.67.9-3.03v-11.84h-2.54v11.93Z"/>
        <rect class="st3" x="223.92" y="17.88" width="2.38" height="2.4"/>
        <rect class="st3" x="253.93" y="34.85" width="2.38" height="2.4"/>
        <path class="st3" d="M251.51,33.07h4.93v-8.36c0-.64-.05-1.16-.16-1.56-.11-.4-.29-.78-.54-1.12l-2.31.96c.31.56.47,1.22.47,1.98v5.77h-2.38s-.79,0-.79,0h-20.44v-8.33h-2.57v10.18c0,2.32-.95,3.48-2.85,3.48-1,0-1.76-.28-2.28-.85-.52-.57-.78-1.39-.78-2.46,0-1.15.29-2.24.86-3.27l-2.31-.61c-.33.58-.59,1.22-.78,1.93-.19.71-.29,1.36-.29,1.95,0,1.81.48,3.17,1.45,4.11.96.93,2.37,1.4,4.23,1.4,1.63,0,2.91-.45,3.83-1.35.92-.9,1.41-2.18,1.47-3.83h20.46s.79,0,.79,0Z"/>
        <path class="st3" d="M296.97,33.07h22.33s.7,0,.7,0h27.66c2.16,0,3.83-.51,5.01-1.53,1.18-1.02,1.76-2.47,1.76-4.35,0-1.57-.45-2.82-1.35-3.76-.9-.93-2.12-1.4-3.67-1.4-1.65,0-2.91.45-3.78,1.35-.87.9-1.31,2.21-1.31,3.92v3.43h-2.1s-9.47,0-9.47,0h-2.36v-3.5c0-1.79-.41-3.1-1.23-3.95-.82-.84-2.1-1.26-3.84-1.26-1.51,0-2.68.32-3.5.96-.83.64-1.35,1.63-1.59,2.96l2.45.26c.17-.73.45-1.24.84-1.53.39-.29,1-.43,1.82-.43.9,0,1.54.24,1.91.72.37.48.56,1.32.56,2.5v3.27h-8.52s-11.99,0-11.99,0c.56-.39,1.01-.93,1.35-1.62.34-.69.51-1.42.51-2.18,0-.98-.22-1.84-.65-2.59-.44-.75-1.03-1.32-1.79-1.72-.75-.4-1.61-.6-2.58-.6-1.62,0-2.87.46-3.76,1.38-.89.92-1.33,2.21-1.33,3.88v3.46h-2.8s-19.8,0-19.8,0v-1.96c0-2.21-.5-3.89-1.51-5.03-1-1.14-2.48-1.72-4.42-1.72-1.18,0-2.27.17-3.27.51l.61,2.24c.89-.3,1.7-.44,2.43-.44,1.23,0,2.14.38,2.72,1.14.58.76.88,1.95.88,3.55v1.7h-7.87v2.33h30.24s.7,0,.7,0ZM346.89,27.19c0-2.01.85-3.01,2.54-3.01.78,0,1.38.26,1.81.79.43.53.64,1.28.64,2.24,0,1.15-.32,2.03-.96,2.63-.64.6-1.57.9-2.8.9h-1.24v-3.55ZM301.63,27.17c0-1.99.83-2.99,2.5-2.99.79,0,1.41.26,1.84.79.44.53.65,1.28.65,2.24,0,1.11-.31,1.97-.93,2.59-.62.62-1.5.93-2.64.93h-1.42v-3.57Z"/>
        <rect class="st3" x="369.69" y="17.9" width="2.33" height="2.38"/>
        <rect class="st3" x="366.1" y="17.9" width="2.36" height="2.38"/>
        <path class="st3" d="M365.72,31.56c1.17,1.01,2.84,1.52,5.02,1.52h29.24s.7,0,.7,0h13.24s21.22,0,21.22,0c2.16,0,3.83-.51,5.01-1.53,1.18-1.02,1.76-2.47,1.76-4.35,0-1.57-.45-2.82-1.35-3.76-.9-.93-2.12-1.4-3.67-1.4-1.65,0-2.91.45-3.78,1.35-.87.9-1.31,2.21-1.31,3.92v3.43h-18.59s-7.61,0-7.61,0v-3.27c0-1.14.2-1.96.61-2.46.4-.51,1.07-.76,2.01-.76.78,0,1.35.14,1.72.42.37.28.63.79.78,1.54l2.45-.26c-.22-1.37-.72-2.37-1.49-2.99-.78-.62-1.91-.93-3.39-.93-3.5,0-5.25,1.77-5.25,5.32v3.39h-2.36s-.7,0-.7,0h-25.9s0-3.46,0-3.46c0-3.5-1.64-5.25-4.93-5.25-1.6,0-2.87.47-3.79,1.4-.93.93-1.39,2.2-1.39,3.81,0,1.87.58,3.31,1.75,4.32ZM434.38,27.19c0-2.01.85-3.01,2.54-3.01.78,0,1.38.26,1.81.79.43.53.64,1.28.64,2.24,0,1.15-.32,2.03-.96,2.63-.64.6-1.57.9-2.8.9h-1.24v-3.55ZM367.19,24.96c.44-.52,1.07-.78,1.89-.78.9,0,1.54.26,1.9.79.37.53.55,1.45.55,2.75v3.01h-1.24c-1.23,0-2.16-.3-2.8-.89-.64-.59-.96-1.47-.96-2.64,0-.98.22-1.73.65-2.25Z"/>
        <rect class="st3" x="476.9" y="34.85" width="2.38" height="2.4"/>
        <path class="st3" d="M482.9,27.24c0-1.79-.41-3.1-1.23-3.95s-2.1-1.26-3.84-1.26c-1.51,0-2.68.32-3.5.96-.83.64-1.35,1.63-1.59,2.96l2.47.26c.17-.73.45-1.24.84-1.53.39-.29.99-.43,1.8-.43.92,0,1.56.24,1.94.72.37.48.56,1.32.56,2.5v3.27h-8.65s-24.21,0-24.21,0v-14.33h-2.57v16.67h26.77s.9,0,.9,0h12.14v-2.33h-1.84v-3.5Z"/>
      </g>
      <g>
        <rect class="st3" x="157.13" y="59.77" width="2.33" height="2.36"/>
        <path class="st3" d="M161.05,56.7c.93-.97,1.4-2.33,1.4-4.07v-.66c0-.78.16-1.36.49-1.74.33-.38.82-.57,1.49-.57h2.5v8.43h36.68v-2.33h-8.01v-3.27c0-1.14.2-1.96.61-2.46.4-.51,1.07-.76,2.01-.76.78,0,1.35.14,1.72.42.37.28.63.79.78,1.54l2.45-.26c-.22-1.37-.72-2.37-1.49-2.99-.78-.62-1.91-.93-3.38-.93-3.5,0-5.25,1.77-5.25,5.32v3.39h-23.53v-8.33h-5.31c-1.39,0-2.45.38-3.2,1.14-.75.76-1.12,1.86-1.12,3.29v.63c0,2.32-.95,3.48-2.85,3.48-1,0-1.76-.28-2.28-.85-.52-.57-.78-1.39-.78-2.46,0-1.15.29-2.24.86-3.27l-2.31-.61c-.33.58-.59,1.22-.78,1.93-.19.71-.29,1.36-.29,1.95,0,1.81.48,3.17,1.45,4.11.96.93,2.37,1.4,4.23,1.4,1.68,0,2.99-.49,3.92-1.46Z"/>
        <rect class="st3" x="153.54" y="59.77" width="2.36" height="2.36"/>
        <rect class="st3" x="225.06" y="42.88" width="2.38" height="2.4"/>
        <path class="st3" d="M266.62,47.41v8.33h-2.5s-7.72,0-7.72,0h-2.15v-2.43c0-2.05-.49-3.61-1.46-4.68-.97-1.07-2.39-1.6-4.26-1.6-1.18,0-2.25.26-3.2.77-.95.51-1.74,1.26-2.36,2.24v-8.64h-2.54s0,14.33,0,14.33h-2.4s-.7,0-.7,0h-9.82v-8.33h-2.54v8.33h-15.71v-14.33h-2.57s0,16.67,0,16.67h5.02s10.79,0,10.79,0h41.63s16.32,0,16.32,0v-4.76c0-2.05-.49-3.61-1.46-4.68-.97-1.07-2.39-1.6-4.26-1.6-1.18,0-2.25.26-3.2.77-.95.51-1.74,1.26-2.36,2.24v-2.64h-2.54ZM251.72,55.75h-8.8v-1.12c0-1.65.48-2.96,1.45-3.92s2.27-1.45,3.92-1.45c1.18,0,2.05.37,2.6,1.12.55.75.83,1.91.83,3.5v1.87ZM270.56,50.69c.96-.96,2.26-1.44,3.91-1.44,1.18,0,2.05.37,2.6,1.12s.83,1.91.83,3.5v1.87h-8.78s0-1.12,0-1.12c0-1.67.48-2.98,1.44-3.93Z"/>
        <polygon class="st3" points="295.35 41.41 292.78 41.41 292.78 55.75 288.86 55.75 288.86 47.41 286.29 47.41 286.29 55.75 283.49 55.75 283.49 58.08 295.35 58.08 295.35 41.41"/>
        <rect class="st3" x="298.34" y="41.41" width="2.57" height="16.67"/>
        <path class="st3" d="M314.19,52.55c.22-.28.58-.42,1.07-.42.45,0,.78.1.98.3.2.2.33.56.4,1.07l2.2-.23c-.16-1.07-.52-1.85-1.09-2.32-.57-.47-1.41-.71-2.53-.71-1.23,0-2.16.31-2.78.93-.62.62-.93,1.55-.93,2.78v2.17h-1.1v1.96h8.38v-1.96h-4.93v-2.19c0-.64.11-1.1.33-1.38Z"/>
        <path class="st3" d="M356.49,53.11c0-1.98-.51-3.43-1.54-4.35-1.03-.93-2.65-1.39-4.88-1.39h-1.03l7.33-5.95h-3.41l-7.45,6.12v1.96h4.13c1.09,0,1.94.11,2.56.33.61.22,1.06.59,1.33,1.12.27.53.41,1.31.41,2.33v2.47h-29.48v-14.33h-2.57v16.67h34.59v-4.97Z"/>
        <rect class="st3" x="363.63" y="42.88" width="2.38" height="2.4"/>
        <path class="st3" d="M396.77,55.75h-2.48s-.7,0-.7,0h-2.47v-14.33h-2.54v14.33h-2.31s-.9,0-.9,0h-15.42v-1.96c0-2.21-.5-3.89-1.51-5.03-1-1.14-2.48-1.72-4.42-1.72-1.18,0-2.27.17-3.27.51l.61,2.24c.89-.3,1.7-.44,2.43-.44,1.23,0,2.14.38,2.72,1.14.58.76.88,1.95.88,3.55v1.7h-7.87s0,2.33,0,2.33h25.85s.9,0,.9,0h7.32s.7,0,.7,0h5.02s0-16.67,0-16.67h-2.54v14.33Z"/>
      </g>
      <g>
        <path class="st3" d="M151.47,105.37c0-1.32.25-2.47.74-3.43.49-.96,1.18-1.71,2.08-2.24.9-.53,1.95-.79,3.16-.79,1.85,0,3.3.57,4.34,1.72,1.04,1.14,1.56,2.7,1.56,4.66s-.53,3.59-1.6,4.75c-1.07,1.16-2.53,1.74-4.38,1.74s-3.32-.57-4.35-1.7c-1.04-1.14-1.55-2.7-1.55-4.69ZM154.02,105.32c0,1.32.26,2.39.79,3.21.53.82,1.39,1.23,2.59,1.23s2.07-.41,2.6-1.24c.54-.82.81-1.9.81-3.22s-.27-2.35-.81-3.16c-.54-.82-1.41-1.23-2.6-1.23s-2.04.41-2.58,1.23c-.54.82-.81,1.88-.81,3.19Z"/>
        <path class="st3" d="M166.77,101.31h-1.89s0-1.94,0-1.94h1.89v-.91c0-1.34.37-2.33,1.12-2.97.75-.64,1.67-.96,2.76-.96.36,0,.72.02,1.1.07.37.05.75.12,1.12.23l-.37,1.84c-.25-.08-.48-.13-.7-.15-.22-.02-.44-.04-.65-.04-.55,0-1,.14-1.37.42-.37.28-.55.78-.55,1.49v.96h2.99v1.94h-2.99v10.09h-2.45v-10.09Z"/>
        <path class="st3" d="M189.72,107.03h-6.89l-1.61,4.37h-2.66l6.35-16.67h2.85l6.33,16.67h-2.76l-1.61-4.37ZM186.26,97.36l-2.71,7.47h5.42s-2.71-7.47-2.71-7.47Z"/>
        <path class="st3" d="M195.88,99.27h2.41v1.8c.45-.64.97-1.13,1.56-1.48.59-.35,1.24-.53,1.94-.53.22,0,.42.01.6.04.18.02.35.05.5.08l-.3,2.19c-.16-.03-.32-.06-.49-.08s-.35-.04-.54-.04c-.37,0-.75.06-1.12.19s-.73.33-1.07.61c-.33.3-.58.63-.77,1-.19.37-.28.81-.28,1.31v7.03h-2.43v-12.12Z"/>
        <path class="st3" d="M205.92,107.35v-6.14h-1.89v-1.94h1.89v-3.27h2.43s0,3.27,0,3.27h3.11v1.94h-3.11s0,6.56,0,6.56c0,.58.13,1.03.39,1.37.26.33.65.5,1.18.5.31,0,.6-.02.85-.07s.49-.1.69-.16l.4,1.84c-.34.11-.71.2-1.1.28-.39.08-.84.12-1.35.12-.93,0-1.65-.18-2.15-.53-.5-.35-.84-.85-1.04-1.49-.19-.65-.29-1.4-.29-2.28Z"/>
        <path class="st3" d="M213.61,94.7h2.5v2.5h-2.5v-2.5ZM213.65,99.27h2.45v12.12h-2.45v-12.12Z"/>
        <path class="st3" d="M219.93,101.31h-1.89v-1.94h1.89v-.91c0-1.34.37-2.33,1.12-2.97.75-.64,1.67-.96,2.76-.96.36,0,.72.02,1.1.07.37.05.75.12,1.12.23l-.37,1.84c-.25-.08-.48-.13-.7-.15-.22-.02-.44-.04-.65-.04-.55,0-1,.14-1.37.42-.37.28-.55.78-.55,1.49v.96h2.99v1.94h-2.99v10.09h-2.45v-10.09ZM227.31,94.7h2.5v2.5h-2.5v-2.5ZM227.36,99.27h2.45v12.12h-2.45v-12.12Z"/>
        <path class="st3" d="M232.5,105.39c0-1.31.23-2.45.7-3.42s1.14-1.73,2.02-2.27,1.93-.81,3.14-.81c1.48,0,2.63.37,3.47,1.1.83.73,1.35,1.74,1.55,3.01l-2.41.4c-.14-.73-.4-1.33-.78-1.8-.38-.47-1.01-.7-1.88-.7-.78,0-1.41.19-1.89.58-.48.39-.83.91-1.05,1.58-.22.66-.33,1.41-.33,2.25s.1,1.6.31,2.26c.21.67.55,1.2,1.03,1.59.48.39,1.11.58,1.9.58.9,0,1.57-.23,2.01-.69.44-.46.72-1.09.84-1.88h2.4c-.19,1.42-.72,2.53-1.6,3.35-.88.82-2.11,1.23-3.7,1.23-1.87,0-3.29-.57-4.27-1.72-.98-1.14-1.47-2.7-1.47-4.66Z"/>
        <path class="st3" d="M245.99,94.7h2.5v2.5h-2.5v-2.5ZM246.04,99.27h2.45v12.12h-2.45v-12.12Z"/>
        <path class="st3" d="M250.8,108.05c0-.81.17-1.47.51-2,.34-.52.81-.93,1.39-1.23.58-.3,1.24-.51,1.97-.64.73-.13,1.49-.21,2.27-.25l2.01-.07v-.47c0-.95-.2-1.63-.61-2.04-.4-.41-1.06-.62-1.96-.62s-1.52.15-1.94.44-.69.71-.82,1.24l-2.22-.23c.22-1.14.75-1.97,1.6-2.5.85-.53,2-.79,3.47-.79,1.76,0,3.01.41,3.75,1.23s1.11,1.97,1.11,3.47v7.8h-2.33v-1.56c-.45.51-1,.95-1.66,1.31s-1.46.54-2.41.54c-1.23,0-2.23-.3-2.99-.91s-1.14-1.51-1.14-2.71ZM253.23,107.96c0,.56.17,1.01.51,1.34.34.33.9.5,1.66.5,1.06,0,1.91-.26,2.57-.79.65-.53.98-1.3.98-2.31v-1.21l-1.87.07c-1,.03-1.77.14-2.33.34-.56.19-.95.46-1.18.81-.23.34-.34.76-.34,1.26Z"/>
        <path class="st3" d="M264.32,94.72h2.45v16.67h-2.45v-16.67Z"/>
        <path class="st3" d="M275.25,94.72h2.59v16.67h-2.59v-16.67Z"/>
        <path class="st3" d="M281.13,99.27h2.41v1.75c.61-.76,1.26-1.31,1.95-1.63.69-.33,1.41-.49,2.16-.49,1.35,0,2.37.38,3.04,1.13.67.75,1,1.85,1,3.28v8.08h-2.43v-7.61c0-1.01-.19-1.73-.56-2.16-.37-.43-.94-.64-1.7-.64-.42,0-.84.08-1.25.23-.41.16-.79.39-1.13.7-.34.3-.6.62-.78.98-.18.36-.27.81-.27,1.35v7.15h-2.43v-12.12Z"/>
        <path class="st3" d="M295.4,107.35v-6.14h-1.89s0-1.94,0-1.94h1.89v-3.27h2.43v3.27h3.11v1.94h-3.11s0,6.56,0,6.56c0,.58.13,1.03.39,1.37.26.33.65.5,1.18.5.31,0,.6-.02.85-.07s.49-.1.69-.16l.4,1.84c-.34.11-.71.2-1.1.28-.39.08-.84.12-1.35.12-.93,0-1.65-.18-2.15-.53-.5-.35-.84-.85-1.04-1.49-.19-.65-.29-1.4-.29-2.28Z"/>
        <path class="st3" d="M302.71,105.44c0-1.4.25-2.59.74-3.56.49-.97,1.17-1.71,2.04-2.22.87-.51,1.88-.76,3.01-.76,1.25,0,2.27.25,3.07.76.8.51,1.4,1.21,1.79,2.1.39.9.58,1.93.58,3.09v1.07h-8.78c.06,1.25.37,2.21.92,2.91.55.69,1.36,1.04,2.42,1.04.92,0,1.6-.18,2.04-.53.44-.35.74-.83.9-1.44h2.31c-.2,1.2-.74,2.14-1.6,2.83-.86.69-2.08,1.03-3.65,1.03-1.85,0-3.28-.56-4.28-1.68-1-1.12-1.51-2.67-1.51-4.65ZM305.63,102.45c-.23.53-.38,1.14-.44,1.82h6.35c-.06-1.15-.31-2.03-.74-2.64-.43-.61-1.2-.91-2.32-.91-.75,0-1.35.16-1.81.47-.46.31-.81.73-1.04,1.26Z"/>
        <path class="st3" d="M316.55,94.72h2.45v16.67h-2.45v-16.67Z"/>
        <path class="st3" d="M322.09,94.72h2.45v16.67h-2.45v-16.67Z"/>
        <path class="st3" d="M327.57,94.7h2.5v2.5h-2.5v-2.5ZM327.62,99.27h2.45v12.12h-2.45v-12.12Z"/>
        <path class="st3" d="M341.7,110.36v-1.24c-.45.62-1,1.11-1.65,1.46-.65.35-1.4.53-2.25.53-1.15,0-2.11-.27-2.86-.81-.75-.54-1.32-1.26-1.68-2.18-.37-.92-.55-1.95-.55-3.08,0-1.23.21-2.3.64-3.22.43-.92,1.04-1.63,1.84-2.15s1.75-.77,2.84-.77c.67,0,1.32.13,1.96.4.64.27,1.22.76,1.75,1.47v-1.49h2.4v10.25c0,1.37-.16,2.55-.47,3.55-.31,1-.87,1.76-1.67,2.3-.8.54-1.94.81-3.42.81-1.62,0-2.89-.3-3.81-.9-.92-.6-1.46-1.56-1.61-2.88h2.4c.14.67.44,1.15.9,1.45.46.3,1.16.44,2.11.44,1.18,0,2-.33,2.44-.99.44-.66.67-1.64.67-2.93ZM340.95,101.99c-.53-.72-1.35-1.09-2.45-1.09-.92,0-1.69.32-2.31.97-.62.65-.93,1.69-.93,3.14,0,.98.15,1.77.44,2.37.3.6.68,1.03,1.17,1.3.48.26.99.4,1.52.4,1.14,0,1.98-.36,2.53-1.09.55-.72.83-1.65.83-2.77v-.37c0-1.18-.27-2.14-.79-2.86Z"/>
        <path class="st3" d="M346.79,105.44c0-1.4.25-2.59.74-3.56.49-.97,1.17-1.71,2.04-2.22.87-.51,1.88-.76,3.01-.76,1.25,0,2.27.25,3.07.76.8.51,1.4,1.21,1.79,2.1.39.9.58,1.93.58,3.09v1.07h-8.78c.06,1.25.37,2.21.92,2.91.55.69,1.36,1.04,2.42,1.04.92,0,1.6-.18,2.04-.53.44-.35.74-.83.9-1.44h2.31c-.2,1.2-.74,2.14-1.6,2.83-.86.69-2.08,1.03-3.65,1.03-1.85,0-3.28-.56-4.28-1.68-1-1.12-1.51-2.67-1.51-4.65ZM349.71,102.45c-.23.53-.38,1.14-.44,1.82h6.35c-.06-1.15-.31-2.03-.74-2.64-.43-.61-1.2-.91-2.32-.91-.75,0-1.35.16-1.81.47-.46.31-.81.73-1.04,1.26Z"/>
        <path class="st3" d="M360.61,99.27h2.41s0,1.75,0,1.75c.61-.76,1.26-1.31,1.95-1.63.69-.33,1.41-.49,2.16-.49,1.35,0,2.37.38,3.04,1.13.67.75,1,1.85,1,3.28v8.08h-2.43v-7.61c0-1.01-.19-1.73-.56-2.16-.37-.43-.94-.64-1.7-.64-.42,0-.84.08-1.25.23-.41.16-.79.39-1.13.7-.34.3-.6.62-.78.98-.18.36-.27.81-.27,1.35v7.15h-2.43v-12.12Z"/>
        <path class="st3" d="M373.71,105.39c0-1.31.23-2.45.7-3.42s1.14-1.73,2.02-2.27,1.93-.81,3.14-.81c1.48,0,2.63.37,3.47,1.1.83.73,1.35,1.74,1.55,3.01l-2.41.4c-.14-.73-.4-1.33-.78-1.8-.38-.47-1.01-.7-1.88-.7-.78,0-1.41.19-1.89.58-.48.39-.83.91-1.05,1.58-.22.66-.33,1.41-.33,2.25s.1,1.6.31,2.26c.21.67.55,1.2,1.03,1.59.48.39,1.11.58,1.9.58.9,0,1.57-.23,2.01-.69.44-.46.72-1.09.84-1.88h2.4c-.19,1.42-.72,2.53-1.6,3.35-.88.82-2.11,1.23-3.7,1.23-1.87,0-3.29-.57-4.27-1.72-.98-1.14-1.47-2.7-1.47-4.66Z"/>
        <path class="st3" d="M386.84,105.44c0-1.4.25-2.59.74-3.56.49-.97,1.17-1.71,2.04-2.22.87-.51,1.88-.76,3.01-.76,1.25,0,2.27.25,3.07.76.8.51,1.4,1.21,1.79,2.1.39.9.58,1.93.58,3.09v1.07h-8.78c.06,1.25.37,2.21.92,2.91.55.69,1.36,1.04,2.42,1.04.92,0,1.6-.18,2.04-.53.44-.35.74-.83.9-1.44h2.31c-.2,1.2-.74,2.14-1.6,2.83-.86.69-2.08,1.03-3.65,1.03-1.85,0-3.28-.56-4.28-1.68-1-1.12-1.51-2.67-1.51-4.65ZM389.76,102.45c-.23.53-.38,1.14-.44,1.82h6.35c-.06-1.15-.31-2.03-.74-2.64-.43-.61-1.2-.91-2.32-.91-.75,0-1.35.16-1.81.47-.46.31-.81.73-1.04,1.26Z"/>
      </g>
      <polygon class="st3" points="151.48 69.75 154.63 69.75 159.67 83.35 164.8 69.75 167.86 69.75 167.86 86.4 165.45 86.4 165.45 73.83 160.62 86.4 158.6 86.4 153.84 73.86 153.84 86.4 151.48 86.4 151.48 69.75"/>
      <path class="st3" d="M170.75,80.39c0-1.32.24-2.46.74-3.43.49-.96,1.18-1.71,2.08-2.24.89-.53,1.95-.79,3.16-.79,1.85,0,3.3.57,4.34,1.71,1.04,1.14,1.56,2.69,1.56,4.65s-.53,3.59-1.6,4.75c-1.07,1.16-2.52,1.74-4.37,1.74s-3.32-.57-4.35-1.7c-1.03-1.13-1.55-2.7-1.55-4.69M173.29,80.34c0,1.32.26,2.39.79,3.21.53.82,1.39,1.22,2.59,1.22s2.06-.41,2.6-1.24c.54-.82.81-1.9.81-3.22s-.27-2.34-.81-3.16c-.54-.82-1.4-1.22-2.6-1.22s-2.04.41-2.58,1.22c-.54.82-.81,1.88-.81,3.18"/>
      <path class="st3" d="M185.25,69.75h2.43v6.25c.61-.75,1.25-1.28,1.94-1.6.68-.32,1.4-.48,2.15-.48,1.35,0,2.36.38,3.03,1.13.67.75,1,1.85,1,3.28v8.07h-2.43v-7.6c0-1.01-.19-1.73-.56-2.16-.37-.43-.94-.64-1.7-.64-.42,0-.84.08-1.25.23-.41.16-.79.39-1.13.7-.34.3-.6.62-.78.98-.18.36-.27.81-.27,1.35v7.14h-2.43v-16.65Z"/>
      <path class="st3" d="M197.99,83.07c0-.81.17-1.47.51-1.99.34-.52.81-.93,1.39-1.22.58-.3,1.24-.51,1.97-.64.73-.13,1.48-.21,2.26-.24l2.01-.07v-.47c0-.95-.2-1.63-.61-2.04-.4-.41-1.06-.62-1.96-.62s-1.52.15-1.94.44c-.42.3-.69.71-.82,1.24l-2.22-.23c.22-1.13.75-1.97,1.6-2.5.85-.53,2-.79,3.46-.79,1.76,0,3.01.41,3.74,1.22.74.82,1.11,1.97,1.11,3.46v7.79h-2.33s0-1.56,0-1.56c-.45.51-1,.95-1.65,1.31s-1.45.54-2.4.54c-1.23,0-2.22-.3-2.98-.91-.76-.61-1.14-1.51-1.14-2.71M200.41,82.98c0,.56.17,1.01.51,1.34.34.33.89.5,1.66.5,1.06,0,1.91-.26,2.57-.79.65-.53.98-1.3.98-2.31v-1.21l-1.87.07c-1,.03-1.77.14-2.33.34-.56.19-.95.46-1.18.8-.23.34-.34.76-.34,1.26"/>
      <path class="st3" d="M211.47,74.3h2.4v1.77c.53-.71,1.11-1.25,1.75-1.61.64-.36,1.29-.54,1.96-.54.87,0,1.59.19,2.15.57.56.38.97.92,1.24,1.62,1.09-1.46,2.43-2.19,4.03-2.19,1.2,0,2.12.33,2.76,1,.65.67.97,1.71.97,3.12v8.35h-2.43v-7.84c0-.99-.16-1.67-.49-2.03-.33-.36-.81-.54-1.45-.54-.34,0-.69.06-1.05.18-.36.12-.71.32-1.05.62-.28.25-.51.54-.68.87-.17.33-.26.72-.26,1.15v7.58h-2.45v-7.84c0-.95-.17-1.61-.5-1.99-.33-.38-.81-.57-1.43-.57-.73,0-1.42.3-2.05.91-.25.22-.48.5-.69.85-.21.35-.31.82-.31,1.41v7.23h-2.43s0-12.1,0-12.1Z"/>
      <path class="st3" d="M230.83,80.46c0-1.4.24-2.59.73-3.56.49-.97,1.17-1.71,2.04-2.22.87-.5,1.87-.76,3.01-.76,1.24,0,2.27.25,3.07.76.8.51,1.4,1.21,1.78,2.1.39.89.58,1.92.58,3.09v1.07h-8.77c.06,1.24.37,2.21.92,2.9.55.69,1.36,1.04,2.41,1.04.92,0,1.6-.18,2.04-.52.44-.35.74-.83.9-1.43h2.31c-.2,1.2-.73,2.14-1.6,2.82-.86.68-2.08,1.03-3.65,1.03-1.85,0-3.28-.56-4.28-1.68-1-1.12-1.5-2.67-1.5-4.64M233.74,77.47c-.23.53-.38,1.13-.44,1.82h6.34c-.06-1.15-.31-2.03-.74-2.64-.43-.61-1.2-.91-2.32-.91-.75,0-1.35.16-1.81.47-.46.31-.81.73-1.04,1.26"/>
      <path class="st3" d="M244.24,80.43c0-2.01.47-3.59,1.42-4.76.95-1.17,2.25-1.75,3.89-1.75.64,0,1.27.13,1.9.38.63.26,1.21.72,1.74,1.39v-5.95h2.45v16.65h-2.38v-1.66c-.5.65-1.06,1.15-1.69,1.5-.63.35-1.38.52-2.25.52-1.15,0-2.1-.28-2.86-.83-.75-.55-1.31-1.31-1.68-2.26-.36-.96-.55-2.04-.55-3.25M246.76,80.36c0,1.1.15,1.97.45,2.61.3.64.69,1.09,1.17,1.36.47.27.97.41,1.48.41,1.03,0,1.85-.34,2.47-1.03.62-.68.93-1.67.93-2.96v-.75c0-1.41-.3-2.45-.9-3.1-.6-.65-1.39-.98-2.37-.98-.92,0-1.69.34-2.31,1.01-.62.68-.93,1.82-.93,3.42"/>
      <path class="st3" d="M268.07,86.4h-2.38v-16.65h2.43v6.13c.48-.62,1.04-1.1,1.69-1.45.64-.34,1.39-.51,2.23-.51,1.14,0,2.08.26,2.83.79.75.53,1.32,1.27,1.69,2.22.37.95.56,2.05.56,3.31,0,2.02-.47,3.62-1.42,4.78-.95,1.17-2.25,1.75-3.89,1.75-.68,0-1.35-.14-2.01-.43-.65-.29-1.23-.77-1.73-1.46v1.52ZM268.12,79.92v.75c0,1.45.3,2.49.91,3.14.61.65,1.38.97,2.33.97s1.7-.34,2.31-1.03c.61-.68.91-1.83.91-3.43,0-1.1-.15-1.97-.44-2.61-.3-.64-.68-1.09-1.14-1.36-.47-.27-.96-.41-1.49-.41-.98,0-1.79.34-2.43,1.01-.64.68-.96,1.67-.96,2.97"/>
      <path class="st3" d="M279.74,69.73h2.5v2.5h-2.5v-2.5ZM279.78,74.3h2.45v12.1h-2.45v-12.1Z"/>
      <path class="st3" d="M285.29,74.3h2.4v1.75c.61-.76,1.26-1.31,1.95-1.63.69-.33,1.41-.49,2.16-.49,1.35,0,2.36.38,3.03,1.13.67.75,1,1.85,1,3.28v8.07h-2.43v-7.6c0-1.01-.19-1.73-.56-2.16-.37-.43-.94-.64-1.7-.64-.42,0-.84.08-1.25.23-.41.16-.79.39-1.13.7-.34.3-.6.62-.78.98-.18.36-.27.81-.27,1.35v7.14h-2.43s0-12.1,0-12.1Z"/>
      <polygon class="st3" points="304.55 84.45 313.76 71.97 304.71 71.97 304.71 69.75 316.8 69.75 316.8 71.73 307.61 84.16 317.12 84.16 316.77 86.4 304.55 86.4 304.55 84.45"/>
      <path class="st3" d="M318.48,83.07c0-.81.17-1.47.51-1.99.34-.52.81-.93,1.39-1.22.58-.3,1.24-.51,1.97-.64.73-.13,1.48-.21,2.26-.24l2.01-.07v-.47c0-.95-.2-1.63-.61-2.04-.4-.41-1.06-.62-1.96-.62s-1.52.15-1.94.44c-.42.3-.69.71-.82,1.24l-2.22-.23c.22-1.13.75-1.97,1.6-2.5.85-.53,2-.79,3.46-.79,1.76,0,3,.41,3.74,1.22.74.82,1.11,1.97,1.11,3.46v7.79h-2.33v-1.56c-.45.51-1,.95-1.65,1.31s-1.45.54-2.4.54c-1.23,0-2.22-.3-2.98-.91-.76-.61-1.14-1.51-1.14-2.71M320.9,82.98c0,.56.17,1.01.51,1.34.34.33.89.5,1.66.5,1.06,0,1.91-.26,2.57-.79.65-.53.98-1.3.98-2.31v-1.21l-1.87.07c-1,.03-1.77.14-2.33.34-.56.19-.95.46-1.18.8-.23.34-.34.76-.34,1.26"/>
      <path class="st3" d="M331.98,88.92c.47.16.91.23,1.33.23.48,0,.85-.14,1.12-.43.26-.29.54-.81.84-1.57l.44-1.17-5.11-11.68h2.75s3.54,9,3.54,9l3.24-9h2.61l-5.2,13.06c-.33.84-.66,1.54-.99,2.11-.33.57-.73,1-1.18,1.28-.45.29-1.03.43-1.73.43-.39,0-.75-.03-1.07-.08-.33-.05-.68-.14-1.05-.27l.44-1.91Z"/>
      <path class="st3" d="M343.59,80.46c0-1.4.24-2.59.73-3.56.49-.97,1.17-1.71,2.04-2.22.87-.5,1.87-.76,3.01-.76,1.24,0,2.27.25,3.07.76.8.51,1.4,1.21,1.79,2.1.39.89.58,1.92.58,3.09v1.07h-8.77c.06,1.24.37,2.21.92,2.9.55.69,1.36,1.04,2.41,1.04.92,0,1.6-.18,2.04-.52.44-.35.74-.83.9-1.43h2.31c-.2,1.2-.74,2.14-1.6,2.82-.86.68-2.08,1.03-3.65,1.03-1.85,0-3.28-.56-4.28-1.68-1-1.12-1.5-2.67-1.5-4.64M346.51,77.47c-.23.53-.38,1.13-.44,1.82h6.34c-.06-1.15-.31-2.03-.73-2.64-.43-.61-1.2-.91-2.32-.91-.75,0-1.35.16-1.81.47-.46.31-.81.73-1.04,1.26"/>
      <path class="st3" d="M357.01,80.43c0-2.01.47-3.59,1.42-4.76.95-1.17,2.25-1.75,3.89-1.75.64,0,1.27.13,1.9.38.63.26,1.21.72,1.74,1.39v-5.95h2.45v16.65h-2.38v-1.66c-.5.65-1.06,1.15-1.69,1.5-.63.35-1.38.52-2.25.52-1.15,0-2.1-.28-2.86-.83-.75-.55-1.31-1.31-1.68-2.26-.36-.96-.55-2.04-.55-3.25M359.52,80.36c0,1.1.15,1.97.45,2.61.3.64.69,1.09,1.17,1.36.47.27.97.41,1.48.41,1.03,0,1.85-.34,2.47-1.03.62-.68.93-1.67.93-2.96v-.75c0-1.41-.3-2.45-.9-3.1-.6-.65-1.39-.98-2.37-.98-.92,0-1.69.34-2.31,1.01-.62.68-.93,1.82-.93,3.42"/>
      <g>
        <path class="st3" d="M378.03,79.71v-9.91h2.56v10.03c0,1.6.31,2.8.92,3.6.61.8,1.61,1.2,2.97,1.2s2.39-.4,2.96-1.2c.58-.8.86-2,.86-3.6v-10.03h2.59v10.01c0,2.46-.57,4.25-1.7,5.38-1.13,1.13-2.72,1.69-4.76,1.69s-3.65-.57-4.76-1.7c-1.1-1.13-1.66-2.95-1.66-5.46"/>
        <path class="st3" d="M394.03,74.35h2.4v1.75c.61-.76,1.26-1.31,1.95-1.63.69-.33,1.41-.49,2.16-.49,1.35,0,2.36.38,3.03,1.13.67.75,1,1.85,1,3.28v8.07h-2.43v-7.6c0-1.01-.19-1.73-.56-2.16-.37-.43-.94-.64-1.7-.64-.42,0-.84.08-1.25.23-.41.16-.79.39-1.13.7-.34.3-.6.62-.78.98-.18.36-.27.81-.27,1.35v7.14h-2.43v-12.1Z"/>
        <path class="st3" d="M407.48,69.78h2.5v2.5h-2.5v-2.5ZM407.53,74.35h2.45v12.1h-2.45v-12.1Z"/>
        <polygon class="st3" points="417.77 83.89 421.15 74.35 423.79 74.35 419.03 86.45 416.42 86.45 411.68 74.35 414.44 74.35 417.77 83.89"/>
        <path class="st3" d="M424.7,80.51c0-1.4.24-2.59.73-3.56.49-.97,1.17-1.71,2.04-2.22.87-.5,1.87-.76,3.01-.76,1.24,0,2.27.25,3.07.76.8.51,1.39,1.21,1.78,2.1.39.89.58,1.92.58,3.09v1.07h-8.77c.06,1.24.37,2.21.92,2.9.55.69,1.36,1.04,2.41,1.04.92,0,1.6-.18,2.04-.52.44-.35.74-.83.9-1.43h2.31c-.2,1.2-.74,2.14-1.6,2.82-.86.68-2.08,1.03-3.65,1.03-1.85,0-3.28-.56-4.28-1.68-1-1.12-1.51-2.67-1.51-4.64M427.61,77.52c-.23.53-.38,1.13-.44,1.82h6.34c-.06-1.15-.31-2.03-.73-2.64s-1.2-.91-2.32-.91c-.75,0-1.35.16-1.81.47s-.8.73-1.04,1.26"/>
        <path class="st3" d="M438.5,74.35h2.4v1.8c.45-.64.97-1.13,1.56-1.48.59-.35,1.24-.53,1.94-.53.22,0,.42.01.59.04.18.02.35.05.5.08l-.3,2.19c-.16-.03-.32-.06-.49-.08-.17-.02-.35-.04-.54-.04-.37,0-.75.06-1.12.19-.37.12-.73.33-1.07.61-.33.3-.58.63-.77,1-.19.37-.28.81-.28,1.31v7.02h-2.43v-12.1Z"/>
        <path class="st3" d="M454.67,83.21c0-.45-.12-.83-.37-1.14-.25-.31-.79-.53-1.61-.65l-1.49-.23c-1.4-.23-2.46-.61-3.18-1.13-.72-.52-1.08-1.34-1.08-2.46,0-.76.21-1.41.64-1.95.43-.54,1.01-.95,1.75-1.24.74-.29,1.58-.43,2.53-.43,1.17,0,2.09.15,2.78.44.68.3,1.2.7,1.55,1.2s.59,1.08.73,1.74l-2.22.3c-.2-.61-.49-1.06-.86-1.38-.37-.31-1.02-.47-1.94-.47-.99,0-1.68.17-2.06.5-.38.33-.57.71-.57,1.13,0,.47.14.83.42,1.1s.85.47,1.7.61l1.68.28c1.46.25,2.5.66,3.13,1.24.62.58.93,1.42.93,2.54,0,1.06-.41,1.92-1.24,2.6-.82.68-2.07,1.01-3.73,1.01-1.01,0-1.92-.13-2.73-.39-.81-.26-1.46-.68-1.95-1.26-.49-.58-.77-1.36-.83-2.32h2.33c.12.76.45,1.3.97,1.62.52.32,1.23.48,2.13.48.95,0,1.62-.16,2.01-.48.39-.32.58-.74.58-1.27"/>
        <path class="st3" d="M459.57,69.78h2.5v2.5h-2.5v-2.5ZM459.61,74.35h2.45v12.1h-2.45v-12.1Z"/>
        <path class="st3" d="M465.89,82.42v-6.13h-1.89v-1.94h1.89s0-3.26,0-3.26h2.43s0,3.26,0,3.26h3.1v1.94h-3.1s0,6.55,0,6.55c0,.58.13,1.03.38,1.36.26.33.65.5,1.18.5.31,0,.59-.02.85-.07.26-.05.49-.1.69-.16l.4,1.84c-.34.11-.71.2-1.1.28-.39.08-.84.12-1.35.12-.93,0-1.65-.18-2.15-.52-.5-.35-.84-.85-1.04-1.49-.19-.65-.29-1.4-.29-2.27"/>
        <path class="st3" d="M473.96,88.97c.47.16.91.23,1.33.23.48,0,.85-.14,1.12-.43.26-.29.54-.81.84-1.57l.44-1.17-5.11-11.68h2.75l3.54,9,3.24-9h2.61l-5.2,13.06c-.33.84-.66,1.54-.99,2.11-.33.57-.73.99-1.18,1.28-.45.29-1.03.43-1.73.43-.39,0-.75-.03-1.07-.08-.33-.05-.68-.14-1.05-.27l.44-1.91Z"/>
      </g>
    </g>
  </g>
</svg>