<?xml version="1.0" encoding="UTF-8"?>
<svg id="Layer_1" data-name="Layer 1" xmlns="http://www.w3.org/2000/svg" viewBox="0 0 276.91 232.79">
  <defs>
    <style>
      .cls-1 {
        fill: #fff;
      }
    </style>
  </defs>
  <path class="cls-1" d="M188.16,150.78c-6.46-6.46-16.52-7.04-23.63-1.82l-10.53-10.53c2.45-3.26,3.96-7.27,3.96-11.68,0-10.77-8.72-19.48-19.51-19.48s-19.51,8.72-19.51,19.48,8.74,19.51,19.51,19.51c4.4,0,8.41-1.51,11.68-3.96l10.53,10.53c-4.59,6.27-4.68,14.78-.21,21.16l-10.51,10c-3.15-2.28-7.08-3.71-11.47-3.71-10.02,0-18.15,7.2-18.15,16.06s8.13,16.08,18.15,16.08,18.15-7.2,18.15-16.08c0-3.12-1.05-6.01-2.8-8.51l10.44-9.93c7.15,5.57,17.46,5.17,23.98-1.37,7.08-7.08,7.06-18.64-.09-25.78v.02Z"/>
  <path class="cls-1" d="M116.83,79.96l11.16-10.02c2.96,1.86,6.57,2.98,10.49,2.98s7.53-1.12,10.49-2.98l11.21,10.02c-4.45,6.92-3.59,16.34,2.59,22.51s15.52,7.04,22.42,2.63l9.83,11.07c-1.89,2.98-3.03,6.62-3.03,10.56,0,10.02,7.2,18.15,16.08,18.15s16.06-8.13,16.06-18.15-7.2-18.15-16.06-18.15c-3.52,0-6.76,1.31-9.39,3.47l-9.44-10.63c5.78-7.01,5.36-17.43-1.31-24.12-6.64-6.64-17.04-7.08-24.05-1.37l-10.77-9.65c2.19-2.66,3.52-5.9,3.52-9.44,0-8.88-8.13-16.08-18.15-16.08s-18.15,7.2-18.15,16.08c0,3.54,1.33,6.78,3.52,9.44l-10.74,9.65c-6.41-5.29-15.43-5.66-22.07-1.03l-6.94-7.22c3.96-5.17,4.71-11.75,2.14-16.85l9.18-7.78c5.55,4.31,14.1,3.85,20.28-1.51,6.92-6.01,8.23-15.87,2.91-21.98-2.7-3.1-6.57-4.66-10.63-4.66s-8.11,1.49-11.54,4.45c-6.06,5.27-7.81,13.47-4.57,19.55l-9.07,7.67c-5.9-4.8-15.12-3.87-21.18,2.38-6.39,6.6-6.85,16.5-1.03,22.16,5.13,4.96,13.38,4.99,19.65.44l6.9,7.18c-5.45,7.13-4.94,17.41,1.68,24,7.18,7.18,18.74,7.25,25.85.16,6.2-6.2,6.92-15.82,2.19-22.96l-.02.02Z"/>
  <path class="cls-1" d="M68.56,108.6c-8.88,0-16.08,8.13-16.08,18.15,0,4.08,1.24,7.83,3.26,10.86l-7.36,8.67c-2.66-2-5.85-3.15-9.25-2.89-2.56.19-4.87,1.19-6.87,2.63l-9.09-10.84c1.19-2.45,1.89-5.31,1.89-8.41s-.75-6.11-1.96-8.6l8.72-10.65c1.96,1.4,4.22,2.33,6.71,2.52,8.09.61,15.19-6.32,15.89-15.47.7-9.14-5.31-17.04-13.42-17.64-2.47-.19-4.8.37-6.92,1.44l-5.13-8.76c.44-.56.91-1.12,1.31-1.75,4.22-6.53,4.1-13.66-.28-15.89-.91-.47-1.93-.7-3.01-.7-4.12,0-9.18,3.24-12.51,8.41-4.22,6.53-4.1,13.66.26,15.89,2.8,1.44,6.67.54,10.18-2.03l4.78,8.16c-2.52,2.75-4.26,6.46-4.57,10.7-.3,4.19.84,8.09,2.89,11.16l-8.25,10.09c-2.05-1.84-4.52-2.96-7.2-2.96-6.92,0-12.54,7.2-12.54,16.08s5.62,16.08,12.54,16.08c2.75,0,5.27-1.17,7.34-3.1l8.62,10.28c-1.98,3.05-3.08,6.9-2.77,11.02.7,9.14,7.81,16.06,15.89,15.45,8.09-.61,14.1-8.51,13.42-17.67-.26-3.19-1.31-6.11-2.89-8.53l7.32-8.6c2.59,2,5.73,3.22,9.11,3.22,8.88,0,16.08-8.13,16.08-18.15s-7.2-18.15-16.08-18.15l-.02-.02Z"/>
  <path class="cls-1" d="M264.84,110.68c-2.75,0-5.24,1.26-7.27,3.31l-9.04-10.6c1.93-3.03,3.01-6.83,2.7-10.91-.3-3.96-1.84-7.43-4.1-10.11l4.29-6.6c3.71,3.03,7.9,4.08,10.86,2.21,4.24-2.68,4.26-10.3.02-17.01-3.22-5.13-7.97-8.25-11.96-8.25-1.24,0-2.38.3-3.38.93-4.24,2.68-4.26,10.28-.05,16.99.21.33.44.61.68.93l-4.68,7.2c-2.28-1.28-4.87-1.98-7.57-1.79-8.09.61-14.1,8.51-13.42,17.67.7,9.14,7.81,16.06,15.89,15.45,2.61-.21,4.94-1.21,6.97-2.7l9.62,11.3c-1.03,2.38-1.68,5.08-1.68,8.02,0,8.88,5.43,16.08,12.1,16.08s12.1-7.2,12.1-16.08-5.43-16.08-12.1-16.08l.02.05Z"/>
  <path class="cls-1" d="M55.3,39.6c4.1-3.75,6.22-8.48,5.99-12.33l10.35-7.46c2.87,1.07,6.92.79,11.07-1.1,6.87-3.17,11.37-9.51,10.02-14.19-.84-2.94-3.78-4.52-7.53-4.52-2.26,0-4.8.56-7.39,1.75-6.85,3.15-11.33,9.42-10.04,14.1l-8.95,6.46c-3.71-2.87-10.51-1.49-15.92,3.47-5.85,5.36-7.81,12.79-4.38,16.59,3.43,3.82,10.93,2.56,16.78-2.77Z"/>
  <path class="cls-1" d="M259.78,177.51c-2.66-1.24-6.18-.37-9.42,1.93l-3.64-6.99c2.84-2.8,4.75-6.78,5.1-11.3.68-9.14-5.31-17.06-13.4-17.67-.33,0-.65-.05-.98-.05-7.69,0-14.26,6.74-14.92,15.5-.28,3.75.61,7.25,2.26,10.16l-10.7,11.26c-5.9-3.59-14.19-2.31-19.79,3.47-6.39,6.57-6.85,16.5-1.03,22.14,4.8,4.66,12.37,4.89,18.46,1.17l7.92,9.97c-4.5,5.13-6.15,11.07-3.61,14.03.96,1.12,2.4,1.65,4.1,1.65h.12c3.31-.02,7.57-2,11.35-5.55,5.76-5.43,8.13-12.49,5.29-15.78-2.47-2.84-8.02-1.91-13.21,1.93l-7.76-9.79c5.17-5.83,5.94-13.89,2.12-19.48l10.23-10.77c2.14,1.82,4.75,3.01,7.67,3.22,2.19.16,4.29-.26,6.22-1.07l4.08,7.83c-.61.75-1.17,1.56-1.7,2.42-3.99,6.64-3.68,13.68.75,15.75,4.4,2.07,11.23-1.63,15.24-8.27,4.01-6.64,3.68-13.7-.72-15.78l-.05.05Z"/>
</svg>