<?xml version="1.0" encoding="UTF-8"?>
<svg id="Layer_1" data-name="Layer 1" xmlns="http://www.w3.org/2000/svg" viewBox="0 0 196.31 334.83">
  <defs>
    <style>
      .cls-1 {
        fill: #fff;
      }
    </style>
  </defs>
  <path class="cls-1" d="M106.73,134.86l2.51,1.63c31.76,17.27,72.24,25.13,84.24,64.38,13.3,43.52-22.86,90.45-56.13,114.49-17.64,12.74-35.2,20.47-57.51,19.36-64.39-3.21-63.91-93.17-4.56-105.6,15.52-3.25,29.89,1.2,45.16,3.32-4.33-3.9-9.8-6.81-14.91-9.62-32.91-18.17-78.24-34.42-97.34-68.96-19.94-36.04-.02-69.06,22.8-97.09C50.39,32.92,75.72,8.47,106.79,1.63c41.26-9.07,82.18,20.66,76,64.82-5.26,37.59-36.59,70.21-76.06,68.41ZM174.54,58.02c1.44-22.51-17.1-41.9-37.88-47.43C94.58-.61,55.25,39,32.27,69.24,14.43,92.72-.38,119.66,15.4,148.81c17.1,31.59,59.28,47.23,89.53,63.42,7.38,3.95,14.94,8.2,21.28,13.71.63.55,3.77,4.19,4.32,3.79,2.4-8.37-2.16-17.5-6.07-24.77-9.17-17.07-22.57-32.41-33.54-48.34-21.26-30.87-37.34-71.49-17.08-107.13,21.82-38.4,74.27-38.9,96.44-1.08l4.26,9.62h0ZM116.75,29.27c-21.11,1.73-38.09,22.47-42.25,42.16-2.78,13.15-.9,32.01,5.1,44.19,4.86,9.85,28.29,11.29,37.76,10.21,22.36-2.54,49.2-23.85,50.68-47.44,1.88-29.93-21.83-51.54-51.29-49.13h0ZM135.58,305.48c.27.26,2.32-1.51,2.7-1.81,26.78-21.48,56.87-61,47.7-97.47-9.55-38.01-52.08-45.78-81.79-62.5l-17.31-10.29c11.53,21.34,28.15,39.36,40.91,59.91,7.41,11.93,17.82,30.56,8.21,43.74,14.56,20.44,13.34,47.92-.42,68.41h0ZM83.56,236.69c-29.25,1.66-50.45,31.53-42.23,59.69,6.77,23.19,28.84,33.38,51.76,27.76,28.71-7.04,47.47-31.48,44.29-61.4-.79-7.45-4.95-15.69-9.35-21.64-10.57,1.03-20.83-2.62-31.23-3.79-4.07-.46-9.18-.85-13.24-.62h0Z"/>
</svg>