<?xml version="1.0" encoding="UTF-8"?>
<svg id="Layer_1" data-name="Layer 1" xmlns="http://www.w3.org/2000/svg" viewBox="0 0 645 429.63">
  <path d="M106.74,134.86l2.51,1.63c31.76,17.27,72.24,25.13,84.24,64.38,13.3,43.52-22.86,90.45-56.13,114.49-17.64,12.74-35.2,20.47-57.51,19.36-64.39-3.21-63.91-93.17-4.56-105.6,15.52-3.25,29.89,1.2,45.16,3.32-4.33-3.9-9.8-6.81-14.91-9.62-32.91-18.17-78.24-34.42-97.34-68.96-19.94-36.04-.02-69.06,22.8-97.09C50.4,32.92,75.73,8.47,106.8,1.63c41.26-9.07,82.18,20.66,76,64.82-5.26,37.59-36.59,70.21-76.06,68.41ZM174.55,58.02c1.44-22.51-17.1-41.9-37.88-47.43C94.59-.61,55.26,39,32.28,69.24,14.44,92.72-.37,119.66,15.41,148.81c17.1,31.59,59.28,47.23,89.53,63.42,7.38,3.95,14.94,8.2,21.28,13.71.63.55,3.77,4.19,4.32,3.79,2.4-8.37-2.16-17.5-6.07-24.77-9.17-17.07-22.57-32.41-33.54-48.34-21.26-30.87-37.34-71.49-17.08-107.13,21.82-38.4,74.27-38.9,96.44-1.08l4.26,9.62ZM116.76,29.27c-21.11,1.73-38.09,22.47-42.25,42.16-2.78,13.15-.9,32.01,5.1,44.19,4.86,9.85,28.29,11.29,37.76,10.21,22.36-2.54,49.2-23.85,50.68-47.44,1.88-29.93-21.83-51.54-51.29-49.13ZM135.59,305.48c.27.26,2.32-1.51,2.7-1.81,26.78-21.48,56.87-61,47.7-97.47-9.55-38.01-52.08-45.78-81.79-62.5l-17.31-10.29c11.53,21.34,28.15,39.36,40.91,59.91,7.41,11.93,17.82,30.56,8.21,43.74,14.56,20.44,13.34,47.92-.42,68.41ZM83.57,236.69c-29.25,1.66-50.45,31.53-42.23,59.69,6.77,23.19,28.84,33.38,51.76,27.76,28.71-7.04,47.47-31.48,44.29-61.4-.79-7.45-4.95-15.69-9.35-21.64-10.57,1.03-20.83-2.62-31.23-3.79-4.07-.46-9.18-.85-13.24-.62Z"/>
  <g>
    <rect x="114" y="152.12" width="531" height="213" fill="none"/>
    <path d="M213.19,253.87c0-38.97,23.58-62.67,59.63-62.67s59.63,23.58,59.63,62.67-23.25,62.89-59.63,62.89-59.63-23.36-59.63-62.89ZM299.1,253.99c0-23.92-10.33-37.73-26.28-37.73s-26.39,13.81-26.39,37.73,10.22,37.73,26.39,37.73,26.28-13.59,26.28-37.73Z"/>
    <path d="M428.25,238.6c-1.91-12.69-10.33-21.67-23.81-21.67-16.17,0-26.28,13.7-26.28,36.95s10.11,37.17,26.39,37.17c13.14,0,21.67-7.86,23.7-21h30.55c-1.68,28.41-22.91,46.72-54.58,46.72-36.27,0-59.3-23.58-59.3-62.89s23.02-62.67,59.07-62.67c32.57,0,53.23,20.1,54.69,47.39h-30.43Z"/>
    <path d="M474.07,163.58c0-9.55,7.64-16.96,17.52-16.96s17.52,7.41,17.52,16.96-7.64,16.96-17.52,16.96-17.52-7.52-17.52-16.96ZM475.2,193.79h32.79v120.39h-32.79v-120.39Z"/>
    <path d="M525.17,279.59c0-21.9,16.85-34.59,46.83-36.39l30.32-1.8v-7.97c0-11.23-7.86-17.74-20.21-17.74s-19.99,6.06-21.56,14.94h-29.99c1.24-23.36,21.11-39.42,53.01-39.42s50.99,15.95,50.99,40.21v82.77h-31.67v-18.42h-.67c-6.74,12.8-21.67,20.33-36.72,20.33-22.91,0-40.32-14.82-40.32-36.5ZM602.32,270.04v-8.76l-25.38,1.57c-12.24.9-19.2,6.4-19.2,14.94,0,8.98,7.41,14.6,18.53,14.6,14.26,0,26.05-9.32,26.05-22.35Z"/>
  </g>
</svg>